<svg baseProfile="tiny" version="1.1" viewBox="0 0 250 300" xml:space="preserve" xmlns="http://www.w3.org/2000/svg">
<rect width="250" height="300" fill="#ABABAB"/>
<g fill="#E0DFD5">
	<path d="m76.581 47.378c0-0.668 0.164-1.157 0.492-1.468s0.738-0.466 1.23-0.466c0.469 0 0.873 0.158 1.213 0.475s0.51 0.803 0.51 1.459-0.17 1.146-0.51 1.468-0.744 0.483-1.213 0.483c-0.492 0-0.902-0.161-1.23-0.483s-0.492-0.812-0.492-1.468zm3.164 24.486h-2.918v-19.265h2.918v19.265z"/>
	<path d="m110.49 71.864v-12.533c0-1.535-0.328-2.687-0.984-3.454s-1.676-1.151-3.059-1.151c-1.816 0-3.158 0.521-4.025 1.564s-1.301 2.648-1.301 4.816v10.758h-2.918v-12.533c0-1.535-0.328-2.687-0.984-3.454s-1.682-1.151-3.076-1.151c-1.828 0-3.167 0.548-4.017 1.644s-1.274 2.892-1.274 5.388v10.107h-2.918v-19.266h2.373l0.475 2.637h0.141c0.551-0.938 1.327-1.67 2.329-2.197s2.124-0.791 3.366-0.791c3.012 0 4.98 1.09 5.906 3.27h0.141c0.574-1.008 1.406-1.805 2.496-2.391s2.332-0.879 3.727-0.879c2.18 0 3.812 0.56 4.896 1.679s1.626 2.909 1.626 5.37v12.568h-2.92z"/>
	<path d="m131.27 71.864l-0.58-2.742h-0.141c-0.961 1.207-1.919 2.024-2.874 2.452s-2.147 0.642-3.577 0.642c-1.91 0-3.407-0.492-4.491-1.477s-1.626-2.385-1.626-4.201c0-3.891 3.111-5.93 9.334-6.117l3.27-0.105v-1.196c0-1.512-0.325-2.628-0.976-3.349s-1.69-1.081-3.12-1.081c-1.605 0-3.422 0.492-5.449 1.477l-0.896-2.232c0.949-0.516 1.989-0.92 3.12-1.213s2.265-0.439 3.401-0.439c2.297 0 3.999 0.51 5.106 1.529s1.661 2.654 1.661 4.904v13.148h-2.162zm-6.592-2.056c1.816 0 3.243-0.498 4.28-1.494s1.556-2.391 1.556-4.184v-1.74l-2.918 0.123c-2.32 0.082-3.993 0.442-5.019 1.081s-1.538 1.632-1.538 2.979c0 1.055 0.319 1.857 0.958 2.408s1.532 0.827 2.681 0.827z"/>
	<path d="m155.21 52.599v1.846l-3.568 0.422c0.328 0.41 0.621 0.946 0.879 1.608s0.387 1.409 0.387 2.241c0 1.887-0.645 3.393-1.934 4.518s-3.059 1.688-5.309 1.688c-0.574 0-1.113-0.047-1.617-0.141-1.242 0.656-1.863 1.482-1.863 2.479 0 0.527 0.217 0.917 0.65 1.169s1.178 0.378 2.232 0.378h3.41c2.086 0 3.688 0.439 4.808 1.318s1.679 2.156 1.679 3.832c0 2.133-0.855 3.759-2.566 4.878s-4.207 1.679-7.488 1.679c-2.52 0-4.462-0.469-5.827-1.406s-2.048-2.262-2.048-3.973c0-1.172 0.375-2.186 1.125-3.041s1.805-1.436 3.164-1.74c-0.492-0.223-0.905-0.568-1.239-1.037s-0.501-1.014-0.501-1.635c0-0.703 0.188-1.318 0.563-1.846s0.967-1.037 1.775-1.529c-0.996-0.41-1.808-1.107-2.435-2.092s-0.94-2.109-0.94-3.375c0-2.109 0.633-3.735 1.898-4.878s3.059-1.714 5.379-1.714c1.008 0 1.916 0.117 2.725 0.352h6.661zm-15.363 22.5c0 1.043 0.439 1.834 1.318 2.373s2.139 0.809 3.779 0.809c2.449 0 4.263-0.366 5.44-1.099s1.767-1.726 1.767-2.979c0-1.043-0.322-1.767-0.967-2.171s-1.857-0.606-3.639-0.606h-3.498c-1.324 0-2.355 0.316-3.094 0.949s-1.106 1.54-1.106 2.724zm1.582-16.33c0 1.348 0.381 2.367 1.143 3.059s1.822 1.037 3.182 1.037c2.848 0 4.271-1.383 4.271-4.148 0-2.895-1.441-4.342-4.324-4.342-1.371 0-2.426 0.369-3.164 1.107s-1.108 1.833-1.108 3.287z"/>
	<path d="m167.3 72.216c-2.848 0-5.095-0.867-6.741-2.602s-2.47-4.143-2.47-7.225c0-3.105 0.765-5.572 2.294-7.4s3.583-2.742 6.161-2.742c2.414 0 4.324 0.794 5.73 2.382s2.109 3.683 2.109 6.284v1.846h-13.271c0.059 2.262 0.63 3.979 1.714 5.15s2.61 1.758 4.579 1.758c2.074 0 4.125-0.434 6.152-1.301v2.602c-1.031 0.445-2.007 0.765-2.927 0.958s-2.029 0.29-3.33 0.29zm-0.791-17.526c-1.547 0-2.78 0.504-3.7 1.512s-1.462 2.402-1.626 4.184h10.072c0-1.84-0.41-3.249-1.23-4.228s-1.993-1.468-3.516-1.468z"/>
	<path d="m58.229 115.06v-12.463c0-1.57-0.357-2.742-1.072-3.516s-1.834-1.16-3.357-1.16c-2.016 0-3.492 0.545-4.43 1.635s-1.406 2.889-1.406 5.396v10.107h-2.918v-19.264h2.373l0.475 2.637h0.141c0.598-0.949 1.436-1.685 2.514-2.206s2.279-0.782 3.604-0.782c2.32 0 4.066 0.56 5.238 1.679s1.758 2.909 1.758 5.37v12.568h-2.92z"/>
	<path d="m83.771 105.41c0 3.141-0.791 5.593-2.373 7.356s-3.768 2.646-6.557 2.646c-1.723 0-3.252-0.404-4.588-1.213s-2.367-1.969-3.094-3.48-1.09-3.281-1.09-5.309c0-3.141 0.785-5.587 2.355-7.339s3.75-2.628 6.539-2.628c2.695 0 4.837 0.896 6.425 2.689s2.383 4.219 2.383 7.278zm-14.678 0c0 2.461 0.492 4.336 1.477 5.625s2.432 1.934 4.342 1.934 3.36-0.642 4.351-1.925 1.485-3.161 1.485-5.634c0-2.449-0.495-4.31-1.485-5.581s-2.452-1.907-4.386-1.907c-1.91 0-3.352 0.627-4.324 1.881s-1.46 3.123-1.46 5.607z"/>
	<path d="m95.108 113.01c0.516 0 1.014-0.038 1.494-0.114s0.861-0.155 1.143-0.237v2.232c-0.316 0.152-0.782 0.278-1.397 0.378s-1.169 0.149-1.661 0.149c-3.727 0-5.59-1.963-5.59-5.889v-11.461h-2.76v-1.406l2.76-1.213 1.23-4.113h1.688v4.465h5.59v2.268h-5.59v11.338c0 1.16 0.275 2.051 0.826 2.672s1.306 0.931 2.267 0.931z"/>
	<path d="m119.63 98.066h-4.904v16.998h-2.918v-16.998h-3.445v-1.318l3.445-1.055v-1.072c0-4.734 2.068-7.102 6.205-7.102 1.02 0 2.215 0.205 3.586 0.615l-0.756 2.338c-1.125-0.363-2.086-0.545-2.883-0.545-1.102 0-1.916 0.366-2.443 1.099s-0.791 1.907-0.791 3.524v1.248h4.904v2.268z"/>
	<path d="m139.77 105.41c0 3.141-0.791 5.593-2.373 7.356s-3.768 2.646-6.557 2.646c-1.723 0-3.252-0.404-4.588-1.213s-2.367-1.969-3.094-3.48-1.09-3.281-1.09-5.309c0-3.141 0.785-5.587 2.355-7.339s3.75-2.628 6.539-2.628c2.695 0 4.837 0.896 6.425 2.689s2.383 4.219 2.383 7.278zm-14.677 0c0 2.461 0.492 4.336 1.477 5.625s2.432 1.934 4.342 1.934 3.36-0.642 4.351-1.925 1.485-3.161 1.485-5.634c0-2.449-0.495-4.31-1.485-5.581s-2.452-1.907-4.386-1.907c-1.91 0-3.352 0.627-4.324 1.881s-1.46 3.123-1.46 5.607z"/>
	<path d="m147.63 95.799v12.498c0 1.57 0.357 2.742 1.072 3.516s1.834 1.16 3.357 1.16c2.016 0 3.489-0.551 4.421-1.652s1.397-2.9 1.397-5.396v-10.126h2.918v19.266h-2.408l-0.422-2.584h-0.158c-0.598 0.949-1.427 1.676-2.487 2.18s-2.271 0.756-3.63 0.756c-2.344 0-4.099-0.557-5.265-1.67s-1.749-2.895-1.749-5.344v-12.604h2.954z"/>
	<path d="m180.17 115.06v-12.463c0-1.57-0.357-2.742-1.072-3.516s-1.834-1.16-3.357-1.16c-2.016 0-3.492 0.545-4.43 1.635s-1.406 2.889-1.406 5.396v10.107h-2.918v-19.264h2.373l0.475 2.637h0.141c0.598-0.949 1.436-1.685 2.514-2.206s2.279-0.782 3.604-0.782c2.32 0 4.066 0.56 5.238 1.679s1.758 2.909 1.758 5.37v12.568h-2.92z"/>
	<path d="m202.2 112.48h-0.158c-1.349 1.957-3.364 2.936-6.048 2.936-2.52 0-4.479-0.861-5.88-2.584s-2.101-4.172-2.101-7.348 0.703-5.643 2.109-7.4 3.363-2.637 5.871-2.637c2.613 0 4.617 0.949 6.013 2.848h0.229l-0.123-1.389-0.07-1.354v-7.84h2.918v27.352h-2.373l-0.387-2.584zm-5.837 0.493c1.992 0 3.437-0.542 4.333-1.626s1.346-2.833 1.346-5.247v-0.615c0-2.73-0.455-4.679-1.363-5.845s-2.358-1.749-4.351-1.749c-1.711 0-3.021 0.665-3.929 1.995s-1.362 3.208-1.362 5.634c0 2.461 0.451 4.318 1.354 5.572s2.226 1.881 3.972 1.881z"/>
</g>
	<circle cx="124.99" cy="211.7" r="51.706" fill="#4C4C4C"/>
	<g fill="#E0DFB5">
		<ellipse cx="108.95" cy="198.14" rx="6.095" ry="9.044"/>
		<ellipse cx="141.2" cy="198.14" rx="6.095" ry="9.044"/>
	</g>
	<path d="m108.52 239.8c0-6.84 7.131-12.386 15.925-12.386 8.795 0 15.926 5.546 15.926 12.386" fill="none" stroke="#EDEDED" stroke-width="3"/>
</svg>
